<svg xmlns="http://www.w3.org/2000/svg" width="22.877" height="20" viewBox="0 0 22.877 20">
  <g id="live-chat" transform="translate(0 -38.487)">
    <g id="Group_905595" data-name="Group 905595" transform="translate(0 38.487)">
      <path id="Path_33030" data-name="Path 33030" d="M123.724,46.438c0-4.384-4.253-7.951-9.481-7.951s-9.481,3.567-9.481,7.951,4.253,7.951,9.481,7.951a11.448,11.448,0,0,0,1.314-.076,12.711,12.711,0,0,0,4.421,2.082.894.894,0,0,0,.1.005.878.878,0,0,0,.765-1.309,4.553,4.553,0,0,1-.513-2.55A7.468,7.468,0,0,0,123.724,46.438Zm-12.055,1.2a1.4,1.4,0,1,1,1.4-1.4A1.4,1.4,0,0,1,111.669,47.638Zm5.15,0a1.4,1.4,0,1,1,1.4-1.4A1.4,1.4,0,0,1,116.819,47.638Z" transform="translate(-100.847 -38.487)" fill="#0063ff"/>
      <path id="Path_33031" data-name="Path 33031" d="M5.919,170.3a8.615,8.615,0,0,1-2.2-2.71,7.379,7.379,0,0,1,0-6.795c.042-.082.086-.163.131-.244A7.107,7.107,0,0,0,0,166.609a6.934,6.934,0,0,0,3.337,5.752,4.945,4.945,0,0,1-.527,3.188.293.293,0,0,0,.254.437l.032,0a13.9,13.9,0,0,0,4.348-2.107,10.819,10.819,0,0,0,1.451.1,10.173,10.173,0,0,0,5.019-1.288c-.319.026-.641.039-.962.039A11.013,11.013,0,0,1,5.919,170.3Z" transform="translate(0 -155.985)" fill="#0063ff"/>
    </g>
  </g>
</svg>
