<svg width="38" height="38" viewBox="0 0 38 38" fill="none" xmlns="http://www.w3.org/2000/svg">
<path d="M12.1026 27.3376C11.9618 27.3376 11.8241 27.3793 11.7071 27.4576C11.59 27.5358 11.4987 27.647 11.4448 27.7771C11.3909 27.9072 11.3768 28.0504 11.4043 28.1885C11.4318 28.3266 11.4996 28.4535 11.5992 28.553C11.6987 28.6526 11.8256 28.7204 11.9637 28.7479C12.1018 28.7754 12.245 28.7613 12.3751 28.7074C12.5052 28.6535 12.6164 28.5622 12.6946 28.4452C12.7729 28.3281 12.8146 28.1904 12.8146 28.0496C12.8146 27.8608 12.7396 27.6796 12.6061 27.5461C12.4726 27.4126 12.2915 27.3376 12.1026 27.3376Z" fill="#0063ff" stroke="white" stroke-width="0.2"/>
<path d="M33.0365 14.5286L37.2305 10.3346C37.3171 10.2478 37.3798 10.1402 37.4126 10.0221C37.4454 9.90399 37.4472 9.77942 37.4177 9.66044C37.3882 9.54147 37.3285 9.43211 37.2444 9.34297C37.1603 9.25382 37.0546 9.1879 36.9375 9.15158L26.7235 5.99958C26.2863 4.59703 25.4258 3.36412 24.2601 2.47002C23.0943 1.57591 21.6805 1.06441 20.2126 1.00569C18.7446 0.946972 17.2944 1.34391 16.061 2.14205C14.8276 2.9402 13.8714 4.10043 13.3235 5.46358L1.49952 9.15258C1.38273 9.1891 1.27732 9.25511 1.19346 9.34423C1.1096 9.43335 1.05013 9.54258 1.02078 9.66138C0.991431 9.78018 0.993198 9.90454 1.02591 10.0225C1.05862 10.1404 1.12117 10.2479 1.20752 10.3346L5.50752 14.6346L2.79952 19.1636C2.74478 19.2548 2.71117 19.3572 2.70119 19.4631C2.69121 19.5691 2.7051 19.6759 2.74184 19.7758C2.77858 19.8756 2.83724 19.966 2.91351 20.0402C2.98977 20.1144 3.08169 20.1706 3.18252 20.2046L7.11952 21.5176V32.4636C7.11966 32.6084 7.16396 32.7497 7.2465 32.8687C7.32905 32.9877 7.44592 33.0787 7.58152 33.1296L18.9815 37.4046C19.1284 37.4565 19.2883 37.4586 19.4365 37.4106H19.4425L32.2535 33.1406C32.3952 33.0934 32.5185 33.0028 32.6059 32.8817C32.6933 32.7605 32.7404 32.615 32.7405 32.4656V21.2246L36.9405 19.9046C37.0572 19.8678 37.1624 19.8016 37.246 19.7124C37.3296 19.6232 37.3889 19.5139 37.418 19.3952C37.4472 19.2764 37.4452 19.1521 37.4124 19.0343C37.3795 18.9165 37.3169 18.8092 37.2305 18.7226L33.0365 14.5286ZM27.0475 8.12358C27.0475 7.94258 27.0395 7.76258 27.0265 7.58258L35.3885 10.1636L31.8375 13.7146L26.0375 11.7806C26.698 10.675 27.047 9.41138 27.0475 8.12358ZM14.5475 6.27158C14.9854 4.99727 15.8611 3.91958 17.0188 3.23019C18.1766 2.5408 19.5413 2.2844 20.8703 2.5066C22.1993 2.7288 23.4064 3.41519 24.277 4.4437C25.1475 5.4722 25.625 6.77613 25.6245 8.12358C25.6247 8.87137 25.4775 9.61185 25.1914 10.3027C24.9053 10.9936 24.4858 11.6214 23.9571 12.1501C23.4283 12.6789 22.8006 13.0983 22.1097 13.3844C21.4188 13.6705 20.6783 13.8177 19.9305 13.8176C19.024 13.8165 18.1309 13.5992 17.3252 13.1838C16.5195 12.7684 15.8245 12.1668 15.2979 11.429C14.7713 10.6912 14.4282 9.83842 14.2972 8.94145C14.1662 8.04449 14.251 7.12921 14.5445 6.27158H14.5475ZM3.04752 10.1616L12.8895 7.09158C12.8394 7.43331 12.814 7.7782 12.8135 8.12358C12.8119 9.25678 13.0824 10.3738 13.6025 11.3806L6.60252 13.7146L3.04752 10.1616ZM4.47552 19.1366L6.72552 15.3856L18.1525 19.1946L15.8995 22.9446L4.47552 19.1366ZM18.5075 35.7046L8.54352 31.9706V21.9926C16.3825 24.5926 16.0005 24.5126 16.2185 24.5126C16.3414 24.5125 16.4622 24.4805 16.5691 24.4199C16.676 24.3593 16.7654 24.272 16.8285 24.1666L18.5075 21.3666V35.7046ZM19.2195 18.0466L8.65952 14.5266L14.4095 12.6096C15.0507 13.3988 15.8536 14.0414 16.7641 14.4941C17.6746 14.9468 18.6715 15.1991 19.6878 15.234C20.704 15.2689 21.7159 15.0855 22.6553 14.6963C23.5947 14.3071 24.4398 13.721 25.1335 12.9776L29.7795 14.5266L19.2195 18.0466ZM31.3195 31.9466L19.9325 35.7466V20.8276L22.4555 23.9816C22.5452 24.0935 22.6666 24.1757 22.8038 24.2175C22.9411 24.2592 23.0877 24.2586 23.2245 24.2156L31.3245 21.6716L31.3195 31.9466ZM23.2625 22.7076L20.4135 19.1476L31.8385 15.3396L35.3945 18.8956L23.2625 22.7076Z" fill="#0063ff" stroke="white" stroke-width="0.2"/>
<path d="M16.6209 28.9196L15.0379 28.3256C14.8622 28.2638 14.6693 28.2734 14.5005 28.3522C14.3318 28.431 14.2006 28.5728 14.1352 28.7472C14.0698 28.9216 14.0753 29.1147 14.1506 29.2851C14.2259 29.4554 14.3649 29.5895 14.5379 29.6586L16.1209 30.2526C16.2089 30.2877 16.303 30.3049 16.3978 30.3032C16.4925 30.3015 16.5859 30.2808 16.6726 30.2425C16.7593 30.2042 16.8374 30.149 16.9025 30.0802C16.9676 30.0113 17.0182 29.9301 17.0515 29.8414C17.0848 29.7526 17.1 29.6582 17.0963 29.5635C17.0926 29.4688 17.07 29.3758 17.0299 29.29C16.9898 29.2041 16.933 29.1271 16.8628 29.0635C16.7925 28.9999 16.7103 28.951 16.6209 28.9196Z" fill="#A4A4B8" stroke="white" stroke-width="0.2"/>
<path d="M16.6224 31.9596L12.3524 30.3596C12.1766 30.2978 11.9837 30.3074 11.815 30.3862C11.6462 30.465 11.5151 30.6069 11.4497 30.7813C11.3842 30.9556 11.3898 31.1487 11.465 31.3191C11.5403 31.4895 11.6794 31.6235 11.8524 31.6926L16.1224 33.2926C16.2981 33.3543 16.491 33.3448 16.6597 33.2659C16.8285 33.1871 16.9596 33.0453 17.0251 32.8709C17.0905 32.6965 17.0849 32.5034 17.0097 32.3331C16.9344 32.1627 16.7953 32.0286 16.6224 31.9596Z" fill="#0063ff" stroke="white" stroke-width="0.2"/>
<path d="M23.9926 5.48458C23.9265 5.41845 23.848 5.366 23.7616 5.33021C23.6752 5.29442 23.5826 5.276 23.4891 5.276C23.3956 5.276 23.303 5.29442 23.2166 5.33021C23.1302 5.366 23.0517 5.41845 22.9856 5.48458L19.2186 9.25158L18.2986 8.33158C18.2324 8.26546 18.154 8.21301 18.0676 8.17723C17.9812 8.14144 17.8886 8.12302 17.7951 8.12302C17.7016 8.12302 17.609 8.14144 17.5226 8.17723C17.4362 8.21301 17.3577 8.26546 17.2916 8.33158C17.2254 8.3977 17.173 8.4762 17.1372 8.56259C17.1014 8.64898 17.083 8.74157 17.083 8.83508C17.083 8.92859 17.1014 9.02118 17.1372 9.10757C17.173 9.19397 17.2254 9.27246 17.2916 9.33858L18.7146 10.7616C18.7807 10.8277 18.8592 10.8802 18.9456 10.916C19.032 10.9517 19.1246 10.9702 19.2181 10.9702C19.3116 10.9702 19.4042 10.9517 19.4906 10.916C19.577 10.8802 19.6555 10.8277 19.7216 10.7616L23.9916 6.49158C24.0578 6.42553 24.1103 6.34709 24.1462 6.26073C24.1821 6.17438 24.2006 6.0818 24.2007 5.98829C24.2007 5.89478 24.1824 5.80216 24.1467 5.71574C24.111 5.62931 24.0586 5.55076 23.9926 5.48458Z" fill="#0063ff" stroke="white" stroke-width="0.2"/>
</svg>
