<svg width="25" height="32" viewBox="0 0 25 32" fill="none" xmlns="http://www.w3.org/2000/svg">
<g clip-path="url(#clip0_268_45)">
<path d="M24.6138 25.615L23.2268 8.136C23.1824 7.59063 22.9351 7.08174 22.5337 6.70993C22.1322 6.33812 21.6059 6.13046 21.0588 6.128H18.3187V6C18.3187 4.40751 17.6861 2.88024 16.5601 1.75418C15.434 0.628114 13.9067 -0.00450134 12.3143 -0.00450134C10.7218 -0.00450134 9.19449 0.628114 8.06843 1.75418C6.94236 2.88024 6.30975 4.40751 6.30975 6V6.123H3.56975C3.02284 6.12519 2.49665 6.33249 2.09522 6.70393C1.69378 7.07537 1.44632 7.5839 1.40175 8.129L0.0147508 25.617C-0.03842 26.3117 0.0525057 27.0099 0.281829 27.6678C0.511153 28.3257 0.873929 28.9291 1.34741 29.4403C1.82089 29.9514 2.39486 30.3592 3.03333 30.6381C3.67181 30.917 4.36102 31.061 5.05775 31.061H19.5708C20.2678 31.061 20.9572 30.9169 21.5959 30.6379C22.2346 30.3588 22.8087 29.9507 23.2823 29.4393C23.7558 28.9278 24.1185 28.324 24.3476 27.6657C24.5768 27.0075 24.6674 26.3099 24.6138 25.615ZM8.12975 6C8.12975 5.45042 8.238 4.90622 8.44831 4.39847C8.65863 3.89072 8.9669 3.42937 9.35551 3.04076C9.74412 2.65214 10.2055 2.34388 10.7132 2.13356C11.221 1.92325 11.7652 1.815 12.3147 1.815C12.8643 1.815 13.4085 1.92325 13.9163 2.13356C14.424 2.34388 14.8854 2.65214 15.274 3.04076C15.6626 3.42937 15.9709 3.89072 16.1812 4.39847C16.3915 4.90622 16.4997 5.45042 16.4997 6V6.123H8.12975V6ZM21.9468 28.2C21.6451 28.5292 21.2778 28.7917 20.8686 28.9704C20.4594 29.1492 20.0173 29.2403 19.5708 29.238H5.05775C4.61177 29.238 4.17059 29.146 3.76186 28.9675C3.35314 28.7891 2.98568 28.5281 2.68252 28.201C2.37936 27.874 2.14704 27.4878 2.00013 27.0667C1.85321 26.6456 1.79487 26.1987 1.82875 25.754L3.21575 8.275C3.22301 8.18595 3.26339 8.10285 3.32893 8.04212C3.39447 7.9814 3.4804 7.94745 3.56975 7.947H6.30975V10.188C6.31758 10.424 6.41683 10.6477 6.58654 10.8119C6.75625 10.9761 6.98312 11.0678 7.21925 11.0678C7.45537 11.0678 7.68226 10.9761 7.85197 10.8119C8.02168 10.6477 8.12092 10.424 8.12875 10.188V7.947H16.4987V10.188C16.5066 10.424 16.6058 10.6477 16.7755 10.8119C16.9452 10.9761 17.1721 11.0678 17.4082 11.0678C17.6444 11.0678 17.8713 10.9761 18.041 10.8119C18.2107 10.6477 18.3099 10.424 18.3177 10.188V7.947H21.0578C21.1474 7.9475 21.2336 7.98172 21.2992 8.04286C21.3648 8.104 21.405 8.18759 21.4118 8.277L22.7998 25.756C22.8353 26.2003 22.7778 26.6471 22.631 27.0679C22.4841 27.4888 22.2511 27.8743 21.9468 28.2Z" fill="#ffffff"/>
<path d="M16.4119 15.426C16.2413 15.2556 16.01 15.1599 15.7689 15.1599C15.5278 15.1599 15.2965 15.2556 15.1259 15.426L11.0639 19.488L9.49692 17.927C9.32625 17.7563 9.09477 17.6604 8.85341 17.6604C8.61205 17.6604 8.38058 17.7563 8.20992 17.927C8.03925 18.0977 7.94336 18.3291 7.94336 18.5705C7.94336 18.8119 8.03925 19.0433 8.20992 19.214L10.4149 21.419C10.4993 21.5035 10.5996 21.5705 10.7099 21.6162C10.8202 21.6619 10.9385 21.6855 11.0579 21.6855C11.1773 21.6855 11.2956 21.6619 11.4059 21.6162C11.5163 21.5705 11.6165 21.5035 11.7009 21.419L16.4059 16.714C16.491 16.6299 16.5586 16.5298 16.6049 16.4195C16.6513 16.3092 16.6754 16.1909 16.676 16.0712C16.6765 15.9516 16.6535 15.833 16.6082 15.7223C16.5629 15.6116 16.4962 15.5109 16.4119 15.426Z" fill="#ffffff"/>
</g>
<defs>
<clipPath id="clip0_268_45">
<rect width="24.629" height="31.062" fill="white"/>
</clipPath>
</defs>
</svg>
