<svg width="38" height="27" viewBox="0 0 38 27" fill="none" xmlns="http://www.w3.org/2000/svg">
<path d="M28.5513 26.087C27.6319 26.087 26.733 25.8143 25.9685 25.3035C25.204 24.7927 24.6081 24.0666 24.2562 23.2171C23.9044 22.3676 23.8123 21.4328 23.9917 20.531C24.1711 19.6292 24.6138 18.8008 25.264 18.1507C25.9142 17.5005 26.7426 17.0577 27.6444 16.8783C28.5462 16.6989 29.481 16.791 30.3305 17.1429C31.1799 17.4948 31.906 18.0906 32.4168 18.8551C32.9277 19.6197 33.2004 20.5185 33.2004 21.438C33.199 22.6706 32.7088 23.8523 31.8372 24.7239C30.9657 25.5955 29.7839 26.0857 28.5513 26.087ZM28.5513 18.887C28.0476 18.887 27.5551 19.0364 27.1363 19.3163C26.7174 19.5961 26.391 19.9939 26.1982 20.4593C26.0054 20.9247 25.955 21.4368 26.0533 21.9309C26.1516 22.425 26.3941 22.8788 26.7503 23.235C27.1065 23.5912 27.5604 23.8338 28.0544 23.9321C28.5485 24.0304 29.0606 23.9799 29.526 23.7871C29.9914 23.5943 30.3892 23.2679 30.6691 22.849C30.949 22.4302 31.0983 21.9377 31.0983 21.434C31.0975 20.7587 30.829 20.1114 30.3515 19.6339C29.874 19.1564 29.2266 18.8878 28.5513 18.887Z" fill="#0063ff"/>
<path d="M12.1627 26.087C11.2432 26.087 10.3444 25.8143 9.57983 25.3035C8.81531 24.7927 8.21943 24.0666 7.86756 23.2171C7.51569 22.3676 7.42362 21.4328 7.603 20.531C7.78239 19.6292 8.22516 18.8008 8.87533 18.1507C9.52551 17.5005 10.3539 17.0577 11.2557 16.8783C12.1575 16.6989 13.0923 16.791 13.9418 17.1429C14.7913 17.4948 15.5173 18.0906 16.0282 18.8551C16.539 19.6197 16.8117 20.5185 16.8117 21.438C16.8104 22.6706 16.3201 23.8523 15.4486 24.7239C14.577 25.5955 13.3953 26.0857 12.1627 26.087ZM12.1627 18.887C11.6589 18.887 11.1665 19.0364 10.7476 19.3163C10.3288 19.5961 10.0023 19.9939 9.80955 20.4593C9.61678 20.9247 9.56634 21.4368 9.66462 21.9309C9.76289 22.425 10.0055 22.8788 10.3617 23.235C10.7179 23.5912 11.1717 23.8338 11.6658 23.9321C12.1599 24.0304 12.672 23.9799 13.1374 23.7871C13.6028 23.5943 14.0006 23.2679 14.2804 22.849C14.5603 22.4302 14.7097 21.9377 14.7097 21.434C14.7089 20.7587 14.4403 20.1114 13.9628 19.6339C13.4853 19.1564 12.8379 18.8878 12.1627 18.887Z" fill="#0063ff"/>
<path d="M30.061 4.49899H24.541V2.39899H30.709C30.9039 2.39843 31.0951 2.45233 31.261 2.55464C31.427 2.65694 31.561 2.80358 31.648 2.97799L35.179 10.001L33.301 10.945L30.061 4.49899Z" fill="#A4A4B8"/>
<path d="M24.8044 20.429H16.0264V22.53H24.8044V20.429Z" fill="#A4A4B8"/>
<path d="M4.40348 22.53C4.26173 22.5362 4.12021 22.5136 3.98742 22.4636C3.85464 22.4137 3.73335 22.3373 3.63086 22.2392C3.52837 22.1411 3.44681 22.0232 3.39109 21.8928C3.33537 21.7623 3.30664 21.6219 3.30664 21.48C3.30664 21.3381 3.33537 21.1977 3.39109 21.0672C3.44681 20.9368 3.52837 20.8189 3.63086 20.7208C3.73335 20.6227 3.85464 20.5463 3.98742 20.4963C4.12021 20.4464 4.26173 20.4238 4.40348 20.43H8.56148C8.70322 20.4238 8.84475 20.4464 8.97754 20.4963C9.11032 20.5463 9.23161 20.6227 9.3341 20.7208C9.43659 20.8189 9.51815 20.9368 9.57387 21.0672C9.62959 21.1977 9.65831 21.3381 9.65831 21.48C9.65831 21.6219 9.62959 21.7623 9.57387 21.8928C9.51815 22.0232 9.43659 22.1411 9.3341 22.2392C9.23161 22.3373 9.11032 22.4137 8.97754 22.4636C8.84475 22.5136 8.70322 22.5362 8.56148 22.53H4.40348Z" fill="#0063ff"/>
<path d="M32.1486 22.53C32.0069 22.5362 31.8653 22.5136 31.7325 22.4636C31.5998 22.4137 31.4785 22.3373 31.376 22.2392C31.2735 22.1411 31.1919 22.0232 31.1362 21.8928C31.0805 21.7623 31.0518 21.6219 31.0518 21.48C31.0518 21.3381 31.0805 21.1977 31.1362 21.0672C31.1919 20.9368 31.2735 20.8189 31.376 20.7208C31.4785 20.6227 31.5998 20.5463 31.7325 20.4964C31.8653 20.4464 32.0069 20.4238 32.1486 20.43H35.6156V14.043L33.7926 11.695H24.3926C24.2544 11.6954 24.1174 11.6685 23.9896 11.616C23.8617 11.5634 23.7455 11.4862 23.6475 11.3886C23.5495 11.2911 23.4717 11.1753 23.4185 11.0477C23.3654 10.9201 23.3379 10.7832 23.3376 10.645V2.1H4.4036C4.13305 2.08819 3.8775 1.9724 3.69024 1.77678C3.50297 1.58116 3.39844 1.3208 3.39844 1.05C3.39844 0.779189 3.50297 0.518832 3.69024 0.323212C3.8775 0.127591 4.13305 0.0118105 4.4036 0H24.3936C24.6723 0.000264762 24.9394 0.111077 25.1365 0.308121C25.3335 0.505164 25.4443 0.772334 25.4446 1.05099V9.59499H34.3076C34.4677 9.59533 34.6256 9.63206 34.7694 9.7024C34.9132 9.77274 35.0391 9.87484 35.1376 10.001L37.4966 13.04C37.6393 13.2244 37.717 13.4508 37.7176 13.684V21.478C37.7173 21.7567 37.6065 22.0238 37.4095 22.2209C37.2124 22.4179 36.9453 22.5287 36.6666 22.529L32.1486 22.53Z" fill="#0063ff"/>
<path d="M2.96012 16.455C2.81837 16.4612 2.67685 16.4386 2.54406 16.3886C2.41128 16.3386 2.28999 16.2623 2.1875 16.1642C2.08501 16.0661 2.00345 15.9482 1.94773 15.8178C1.89201 15.6873 1.86328 15.5469 1.86328 15.405C1.86328 15.2631 1.89201 15.1227 1.94773 14.9922C2.00345 14.8618 2.08501 14.7439 2.1875 14.6458C2.28999 14.5477 2.41128 14.4713 2.54406 14.4213C2.67685 14.3714 2.81837 14.3488 2.96012 14.355H8.47712C8.74767 14.3668 9.00321 14.4826 9.19048 14.6782C9.37775 14.8738 9.48228 15.1342 9.48228 15.405C9.48228 15.6758 9.37775 15.9361 9.19048 16.1318C9.00321 16.3274 8.74767 16.4432 8.47712 16.455H2.96012Z" fill="#0063ff"/>
<path d="M1.00516 11.735C0.734614 11.7232 0.479065 11.6074 0.291798 11.4118C0.104531 11.2162 0 10.9558 0 10.685C0 10.4142 0.104531 10.1538 0.291798 9.95822C0.479065 9.7626 0.734614 9.64681 1.00516 9.63499H11.2392C11.5097 9.64681 11.7653 9.7626 11.9525 9.95822C12.1398 10.1538 12.2443 10.4142 12.2443 10.685C12.2443 10.9558 12.1398 11.2162 11.9525 11.4118C11.7653 11.6074 11.5097 11.7232 11.2392 11.735H1.00516Z" fill="#0063ff"/>
<path d="M2.96024 7.01699C2.68969 7.00518 2.43414 6.8894 2.24688 6.69378C2.05961 6.49816 1.95508 6.23781 1.95508 5.967C1.95508 5.6962 2.05961 5.43583 2.24688 5.24021C2.43414 5.04459 2.68969 4.92881 2.96024 4.917H13.1982C13.4688 4.92881 13.7243 5.04459 13.9116 5.24021C14.0989 5.43583 14.2034 5.6962 14.2034 5.967C14.2034 6.23781 14.0989 6.49816 13.9116 6.69378C13.7243 6.8894 13.4688 7.00518 13.1982 7.01699H2.96024Z" fill="#0063ff"/>
</svg>
