<svg width="31" height="35" viewBox="0 0 31 35" fill="none" xmlns="http://www.w3.org/2000/svg">
<g clip-path="url(#clip0_268_53)">
<path d="M29.9581 9.537L29.9321 9.493C29.8967 9.41972 29.8559 9.34919 29.8101 9.282L25.0021 0.971C24.831 0.676228 24.5857 0.431445 24.2906 0.261068C23.9955 0.0906906 23.6608 0.000674947 23.3201 0L6.77505 0C6.43374 0.000528514 6.09854 0.0906806 5.80301 0.261436C5.50748 0.432192 5.26197 0.677563 5.09105 0.973L0.205049 9.449C0.161712 9.52375 0.128108 9.60373 0.105051 9.687C0.0337848 9.87899 -0.00245449 10.0822 -0.00194789 10.287V32.175C-0.00141826 32.8066 0.249709 33.4121 0.696306 33.8587C1.1429 34.3053 1.74847 34.5565 2.38005 34.557H27.712C28.3436 34.5565 28.9492 34.3053 29.3958 33.8587C29.8424 33.4121 30.0935 32.8066 30.094 32.175V10.2C30.094 10.171 30.094 10.141 30.094 10.112C30.1072 9.91105 30.0598 9.71078 29.9581 9.537ZM16.094 2.026H23.2721L27.0541 8.564H16.094V2.026ZM6.82205 2.026H14.0691V8.564H3.05305L6.82205 2.026ZM28.0681 32.175C28.0681 32.2694 28.0305 32.36 27.9638 32.4267C27.897 32.4935 27.8065 32.531 27.712 32.531H2.38205C2.28763 32.531 2.19708 32.4935 2.13032 32.4267C2.06356 32.36 2.02605 32.2694 2.02605 32.175V10.589H28.0681V32.175Z" fill="#0063ff

"/>
<path d="M19.4521 18.052C19.2621 17.8622 19.0046 17.7556 18.7361 17.7556C18.4676 17.7556 18.21 17.8622 18.0201 18.052L13.4981 22.574L11.7591 20.835C11.5674 20.6541 11.3127 20.555 11.0491 20.5588C10.7856 20.5626 10.5339 20.669 10.3475 20.8554C10.1611 21.0418 10.0547 21.2935 10.0509 21.5571C10.0471 21.8206 10.1462 22.0753 10.3271 22.267L12.7821 24.722C12.972 24.9118 13.2296 25.0184 13.4981 25.0184C13.7666 25.0184 14.0241 24.9118 14.2141 24.722L19.4521 19.484C19.6419 19.294 19.7485 19.0365 19.7485 18.768C19.7485 18.4995 19.6419 18.242 19.4521 18.052Z" fill="#0063ff"/>
</g>
<defs>
<clipPath id="clip0_268_53">
<rect width="30.094" height="34.557" fill="white"/>
</clipPath>
</defs>
</svg>
